<?xml version="1.0" encoding="UTF-8" standalone="no"?>
<!DOCTYPE svg PUBLIC "-//W3C//DTD SVG 1.1//EN" "http://www.w3.org/Graphics/SVG/1.1/DTD/svg11.dtd">
<!-- Created with Vectornator (http://vectornator.io/) -->
<svg height="100%" stroke-miterlimit="10" style="fill-rule:nonzero;clip-rule:evenodd;stroke-linecap:round;stroke-linejoin:round;" version="1.1" viewBox="0 0 390 844" width="100%" xml:space="preserve" xmlns="http://www.w3.org/2000/svg" xmlns:vectornator="http://vectornator.io" xmlns:xlink="http://www.w3.org/1999/xlink">
<defs/>
<g id="Layer-1" vectornator:layerName="Layer 1">
<path d="M55.4375 720.219C38.869 720.219 25.4375 733.65 25.4375 750.219L25.4375 770.219C25.4375 786.787 38.869 800.219 55.4375 800.219L345.438 800.219C362.006 800.219 375.438 786.787 375.438 770.219L375.438 750.219C375.438 733.65 362.006 720.219 345.438 720.219L259.219 720.219C245.563 720.219 242.012 720.543 237.281 722.812C233.189 724.775 228.919 728.269 221.656 735.531L208.406 748.781C201.004 756.184 188.996 756.184 181.594 748.781L168.312 735.531C161.05 728.269 156.779 724.775 152.688 722.812C147.956 720.543 144.406 720.219 130.75 720.219L55.4375 720.219Z" fill="#000000" fill-rule="nonzero" opacity="1" stroke="none"/>
</g>
</svg>
